<?xml version="1.0" encoding="UTF-8"?>
<svg width="800" height="600" viewBox="0 0 800 600" version="1.1" xmlns="http://www.w3.org/2000/svg">
  <defs>
    <linearGradient id="bgGradient" x1="0%" y1="0%" x2="100%" y2="100%">
      <stop offset="0%" stop-color="#111827" />
      <stop offset="100%" stop-color="#1E3A8A" />
    </linearGradient>
    <linearGradient id="cloudGradient" x1="0%" y1="0%" x2="100%" y2="100%">
      <stop offset="0%" stop-color="#60A5FA" stop-opacity="0.2" />
      <stop offset="100%" stop-color="#3B82F6" stop-opacity="0.6" />
    </linearGradient>
    <filter id="glow" x="-50%" y="-50%" width="200%" height="200%">
      <feGaussianBlur stdDeviation="5" result="blur" />
      <feComposite in="SourceGraphic" in2="blur" operator="over" />
    </filter>
  </defs>
  
  <!-- Background -->
  <rect width="800" height="600" fill="url(#bgGradient)" />
  
  <!-- Cloud Infrastructure Background -->
  <g opacity="0.15">
    <rect x="100" y="100" width="120" height="60" rx="5" fill="#60A5FA" />
    <rect x="250" y="100" width="120" height="60" rx="5" fill="#60A5FA" />
    <rect x="400" y="100" width="120" height="60" rx="5" fill="#60A5FA" />
    <rect x="550" y="100" width="120" height="60" rx="5" fill="#60A5FA" />
    
    <rect x="100" y="200" width="120" height="60" rx="5" fill="#60A5FA" />
    <rect x="250" y="200" width="120" height="60" rx="5" fill="#60A5FA" />
    <rect x="400" y="200" width="120" height="60" rx="5" fill="#60A5FA" />
    <rect x="550" y="200" width="120" height="60" rx="5" fill="#60A5FA" />
    
    <rect x="100" y="300" width="120" height="60" rx="5" fill="#60A5FA" />
    <rect x="250" y="300" width="120" height="60" rx="5" fill="#60A5FA" />
    <rect x="400" y="300" width="120" height="60" rx="5" fill="#60A5FA" />
    <rect x="550" y="300" width="120" height="60" rx="5" fill="#60A5FA" />
  </g>
  
  <!-- Connection Lines -->
  <g stroke="#3B82F6" stroke-width="1.5" opacity="0.6">
    <line x1="160" y1="130" x2="250" y2="130" />
    <line x1="370" y1="130" x2="400" y2="130" />
    <line x1="520" y1="130" x2="550" y2="130" />
    
    <line x1="160" y1="230" x2="250" y2="230" />
    <line x1="370" y1="230" x2="400" y2="230" />
    <line x1="520" y1="230" x2="550" y2="230" />
    
    <line x1="160" y1="330" x2="250" y2="330" />
    <line x1="370" y1="330" x2="400" y2="330" />
    <line x1="520" y1="330" x2="550" y2="330" />
    
    <line x1="160" y1="130" x2="160" y2="230" />
    <line x1="310" y1="130" x2="310" y2="230" />
    <line x1="460" y1="130" x2="460" y2="230" />
    <line x1="610" y1="130" x2="610" y2="230" />
    
    <line x1="160" y1="230" x2="160" y2="330" />
    <line x1="310" y1="230" x2="310" y2="330" />
    <line x1="460" y1="230" x2="460" y2="330" />
    <line x1="610" y1="230" x2="610" y2="330" />
  </g>
  
  <!-- Cloud Symbols -->
  <g transform="translate(400, 480)" filter="url(#glow)">
    <path d="M-100,-30 
             C-100,-50 -80,-60 -60,-60 
             C-50,-90 -10,-90 0,-60 
             C20,-80 50,-70 50,-40 
             C80,-40 90,-20 80,0 
             Z" 
          fill="url(#cloudGradient)" stroke="#60A5FA" stroke-width="2" />
          
    <circle cx="-60" cy="-30" r="10" fill="#3B82F6" opacity="0.8" />
    <circle cx="0" cy="-40" r="10" fill="#3B82F6" opacity="0.8" />
    <circle cx="40" cy="-20" r="10" fill="#3B82F6" opacity="0.8" />
    
    <!-- Animated particles -->
    <circle cx="-70" cy="-20" r="3" fill="#60A5FA" opacity="0.8">
      <animate attributeName="cy" values="-20;-30;-20" dur="3s" repeatCount="indefinite" />
    </circle>
    <circle cx="-10" cy="-30" r="3" fill="#60A5FA" opacity="0.8">
      <animate attributeName="cx" values="-10;0;-10" dur="4s" repeatCount="indefinite" />
    </circle>
    <circle cx="30" cy="-40" r="3" fill="#60A5FA" opacity="0.8">
      <animate attributeName="cy" values="-40;-30;-40" dur="2.5s" repeatCount="indefinite" />
    </circle>
  </g>
  
  <!-- Data Transfer Animations -->
  <g>
    <circle cx="160" cy="130" r="3" fill="#38BDF8">
      <animate attributeName="cy" values="130;230;330;230;130" dur="5s" repeatCount="indefinite" />
    </circle>
    <circle cx="310" cy="130" r="3" fill="#38BDF8">
      <animate attributeName="cy" values="130;230;330;230;130" dur="4s" repeatCount="indefinite" />
    </circle>
    <circle cx="460" cy="230" r="3" fill="#38BDF8">
      <animate attributeName="cy" values="230;330;230;130;230" dur="6s" repeatCount="indefinite" />
    </circle>
    <circle cx="610" cy="330" r="3" fill="#38BDF8">
      <animate attributeName="cy" values="330;230;130;230;330" dur="5.5s" repeatCount="indefinite" />
    </circle>
  </g>
  
  <!-- Virtual Machines -->
  <g transform="translate(200, 400)">
    <rect x="0" y="0" width="80" height="100" rx="5" fill="#1E40AF" opacity="0.7" stroke="#3B82F6" stroke-width="1" />
    <rect x="10" y="10" width="60" height="10" rx="2" fill="#60A5FA" opacity="0.8" />
    <rect x="10" y="30" width="60" height="10" rx="2" fill="#60A5FA" opacity="0.8" />
    <rect x="10" y="50" width="60" height="10" rx="2" fill="#60A5FA" opacity="0.8" />
    <rect x="10" y="70" width="60" height="10" rx="2" fill="#60A5FA" opacity="0.8" />
    
    <!-- Connecting line to cloud -->
    <line x1="40" y1="0" x2="40" y2="-30" stroke="#3B82F6" stroke-width="1.5" stroke-dasharray="5,3" />
    <line x1="40" y1="-30" x2="160" y2="-30" stroke="#3B82F6" stroke-width="1.5" stroke-dasharray="5,3" />
  </g>
  
  <g transform="translate(500, 400)">
    <rect x="0" y="0" width="80" height="100" rx="5" fill="#1E40AF" opacity="0.7" stroke="#3B82F6" stroke-width="1" />
    <rect x="10" y="10" width="60" height="10" rx="2" fill="#60A5FA" opacity="0.8" />
    <rect x="10" y="30" width="60" height="10" rx="2" fill="#60A5FA" opacity="0.8" />
    <rect x="10" y="50" width="60" height="10" rx="2" fill="#60A5FA" opacity="0.8" />
    <rect x="10" y="70" width="60" height="10" rx="2" fill="#60A5FA" opacity="0.8" />
    
    <!-- Connecting line to cloud -->
    <line x1="40" y1="0" x2="40" y2="-30" stroke="#3B82F6" stroke-width="1.5" stroke-dasharray="5,3" />
    <line x1="40" y1="-30" x2="-100" y2="-30" stroke="#3B82F6" stroke-width="1.5" stroke-dasharray="5,3" />
  </g>
  
  <!-- Animated data packets -->
  <circle cx="240" cy="370" r="4" fill="#F59E0B">
    <animate attributeName="cy" values="370;310;310" dur="3s" repeatCount="indefinite" />
    <animate attributeName="cx" values="240;300;400" dur="3s" repeatCount="indefinite" />
  </circle>
  
  <circle cx="540" cy="370" r="4" fill="#F59E0B">
    <animate attributeName="cy" values="370;310;310" dur="3s" repeatCount="indefinite" />
    <animate attributeName="cx" values="540;480;400" dur="3s" repeatCount="indefinite" />
  </circle>
</svg>
